<svg width="138" height="21" viewBox="0 0 138 21" fill="none" xmlns="http://www.w3.org/2000/svg">
<path d="M45.7375 0.472015H47.8976V19.8262H45.7375V0.472015Z" fill="#EDEDED"/>
<path d="M50.3186 16.4587C50.3186 14.1133 52.299 12.3764 56.2042 11.9278L59.8485 11.4791V10.9505C59.8485 9.16037 58.5738 8.00098 56.4095 8.00098C54.4291 8.00098 53.1288 8.9738 53.1545 10.6351H50.9688C50.9688 7.81885 53.1288 6.02869 56.4352 6.02869C59.8485 6.02869 62.0085 7.97877 62.0085 11.0038V19.8258H59.8485V17.8758H59.6132C58.6765 19.4038 57.1409 20.2478 55.0322 20.2478C52.1963 20.2523 50.3186 18.7509 50.3186 16.4587ZM59.8528 14.5353V13.3493L56.2085 13.7713C53.5266 14.1133 52.4829 15.1661 52.4829 16.4054C52.4829 17.6714 53.5779 18.431 55.3487 18.431C58.0263 18.4355 59.8528 16.7741 59.8528 14.5353Z" fill="#EDEDED"/>
<path d="M65.8666 16.4054V8.26752H63.7322V6.53066H65.8666L66.3627 2.23959H68.0566L68.0309 6.53066H71.4143V8.26752H68.0309V16.3255C68.0309 17.5915 68.8136 18.4844 70.0626 18.4844C70.4519 18.4844 71.132 18.3777 71.6238 18.2223V19.9858C70.9994 20.1946 70.1396 20.3278 69.4895 20.3278C67.2738 20.3323 65.8666 18.7509 65.8666 16.4054Z" fill="#EDEDED"/>
<path d="M73.3391 16.4587C73.3391 14.1133 75.3195 12.3764 79.2247 11.9278L82.869 11.4791V10.9505C82.869 9.16037 81.5944 8.00098 79.43 8.00098C77.4496 8.00098 76.1493 8.9738 76.175 10.6351H73.9893C73.9893 7.81885 76.1493 6.02869 79.4557 6.02869C82.869 6.02869 85.0291 7.97877 85.0291 11.0038V19.8258H82.869V17.8758H82.6337C81.697 19.4038 80.1615 20.2478 78.0527 20.2478C75.2126 20.2523 73.3391 18.7509 73.3391 16.4587ZM82.869 14.5353V13.3493L79.2247 13.7713C76.5428 14.1133 75.4992 15.1661 75.4992 16.4054C75.4992 17.6714 76.5942 18.431 78.365 18.431C81.0469 18.4355 82.869 16.7741 82.869 14.5353Z" fill="#EDEDED"/>
<path d="M88.2585 6.53062H90.3416V8.29414H90.6025C91.3297 6.92597 92.7112 6.00201 94.4307 6.00201C96.2785 6.00201 97.9724 7.02814 98.7252 8.58287H98.9604C99.8715 7.02814 101.381 6.02867 103.362 6.02867C106.459 6.02867 108.674 8.44961 108.674 11.9011V19.8258H106.514V11.8745C106.514 9.609 105.081 7.97875 103.101 7.97875C100.992 7.97875 99.5079 9.61344 99.5079 11.8745V19.8258H97.3479V11.8745C97.3479 9.52904 95.9919 7.97875 93.9645 7.97875C91.8301 7.97875 90.4229 9.53348 90.4229 11.8745V19.8258H88.2628V6.53062H88.2585Z" fill="#EDEDED"/>
<path d="M110.706 13.0072C110.706 8.95157 113.623 6.00201 117.687 6.00201C121.699 6.00201 124.586 8.95157 124.586 13.0339C124.586 13.2959 124.586 13.6113 124.56 13.9045H112.922C113.234 16.592 115.163 18.3822 117.845 18.3822C119.8 18.3822 121.515 17.3827 122.349 15.8013L124.145 16.7253C123.076 18.9907 120.706 20.3589 117.794 20.3589C113.675 20.3544 110.706 17.2761 110.706 13.0072ZM122.319 11.9811C121.93 9.58679 120.078 7.97875 117.58 7.97875C115.159 7.97875 113.311 9.58679 112.943 11.9811H122.319Z" fill="#EDEDED"/>
<path d="M129.377 12.9051L124.689 6.53064H127.007L130.6 11.4836H130.861L134.454 6.53064H136.772L132.084 12.9051L137.033 19.8303H134.638L130.861 14.4065H130.6L126.823 19.8303H124.428L129.377 12.9051Z" fill="#EDEDED"/>
<path d="M12.2288 17.8136H5.52199C4.97877 17.8136 4.54248 18.2578 4.54248 18.8042C4.54248 19.3506 4.98304 19.7948 5.52199 19.7948H12.8533L12.2288 17.8136Z" fill="#EDEDED"/>
<path d="M10.5094 12.3898H0.919626C0.410624 12.3898 0 12.834 0 13.3804C0 13.9267 0.410624 14.3709 0.919626 14.3709H11.1382L10.5094 12.3898Z" fill="#EDEDED"/>
<path d="M8.79002 6.96152H2.31842C1.81797 6.96152 1.41162 7.40573 1.41162 7.95211C1.41162 8.49849 1.81797 8.9427 2.31842 8.9427H9.41878L8.79002 6.96152Z" fill="#EDEDED"/>
<path d="M32.4606 11.5236H25.3645L25.9933 13.5047H32.4606C32.9653 13.5047 33.3759 13.0605 33.3759 12.5141C33.3759 11.9678 32.9653 11.5236 32.4606 11.5236Z" fill="#EDEDED"/>
<path d="M33.8379 6.09976H23.645L24.2738 8.08094H33.8379C34.364 8.08094 34.7918 7.63673 34.7918 7.09035C34.7918 6.54397 34.364 6.09976 33.8379 6.09976Z" fill="#EDEDED"/>
<path d="M29.2655 0.671875H21.9299L22.5587 2.65305H29.2698C29.813 2.65305 30.2493 2.20884 30.2493 1.66246C30.2451 1.11609 29.8088 0.671875 29.2655 0.671875Z" fill="#EDEDED"/>
<path d="M20.745 13.6691L17.1221 2.23069H5.60329C5.06007 2.23069 4.62378 1.78648 4.62378 1.2401C4.62378 0.693721 5.06434 0.249512 5.60329 0.249512H17.8407C18.2685 0.249512 18.6449 0.529364 18.7732 0.938037L22.6142 13.065C22.781 13.5847 22.5757 14.1533 21.994 14.3398C21.8956 14.3665 21.1043 14.5575 20.745 13.6691Z" fill="#EDEDED"/>
<path d="M14.0554 6.84602L17.6783 18.2844H29.2014C29.7446 18.2844 30.1809 18.7286 30.1809 19.275C30.1809 19.8214 29.7403 20.2656 29.2014 20.2656H16.9597C16.5319 20.2656 16.1555 19.9858 16.0272 19.5771L12.1862 7.45015C12.0193 6.93043 12.2247 6.36183 12.8064 6.17527C12.9048 6.14417 13.7003 5.95316 14.0554 6.84602Z" fill="#EDEDED"/>
</svg>
